<svg width="40" height="41" viewBox="0 0 40 41" fill="none" xmlns="http://www.w3.org/2000/svg">
<path d="M34.7914 23.9942C34.0829 24.4206 33.2564 24.4981 32.6267 24.1492C31.8396 23.6841 31.3673 22.6376 31.3673 21.2035V16.8237C31.3673 14.7306 30.5408 13.219 29.124 12.8314C26.7232 12.1337 24.9128 15.0407 24.2437 16.126L19.9932 22.8314V14.5756C19.9539 12.6764 19.3242 11.5523 18.1435 11.2035C17.3563 10.9709 16.1756 11.0872 15.0343 12.7927L5.5493 27.7539C4.28988 25.3895 3.62082 22.7539 3.62082 20.0795C3.62082 11.0485 10.9805 3.72288 19.9932 3.72288C29.0059 3.72288 36.3656 11.0485 36.3656 20.0795V20.1182V20.157C36.4443 21.9012 35.8933 23.2965 34.7914 23.9942ZM39.9864 20.0795V20.0407V20.0019C39.9471 9.03295 30.9738 0.0794678 19.9932 0.0794678C8.97334 0.0794678 0 9.03296 0 20.0795C0 31.0872 8.97334 40.0795 19.9932 40.0795C25.0702 40.0795 29.8718 38.1802 33.5713 34.7306C34.3191 34.0329 34.3584 32.9089 33.65 32.1725C32.9809 31.4361 31.8396 31.3973 31.0918 32.0562C31.0918 32.0562 31.0918 32.0562 31.0525 32.095C28.0613 34.8857 24.047 36.4748 19.9145 36.4748C15.0736 36.4748 10.7444 34.3818 7.75328 31.0485L16.2937 17.5601V23.8004C16.2937 26.7849 17.4744 27.7539 18.4583 28.0252C19.4422 28.2965 20.9378 28.1027 22.5514 25.5833L27.2349 18.1027C27.3923 17.8702 27.5104 17.6376 27.6678 17.4826V21.281C27.6678 24.0717 28.8091 26.3198 30.777 27.405C32.548 28.4128 34.7914 28.2965 36.6411 27.1725C38.9238 25.6996 40.1439 23.1415 39.9864 20.0795Z" fill="white"/>
</svg>
