<svg width="40" height="41" viewBox="0 0 40 41" fill="none" xmlns="http://www.w3.org/2000/svg">
<path fill-rule="evenodd" clip-rule="evenodd" d="M17.6077 0.148866C10.9108 1.01775 5.05839 5.16458 2.03845 11.1807C0.690471 13.866 0.132603 16.0517 0.0196135 19.0903C-0.122236 22.9089 0.498797 25.9012 2.09576 29.0923C3.10409 31.1074 3.87718 31.5305 6.07652 31.2709C8.44344 30.9914 8.28267 31.4763 8.28267 24.6177C8.28267 18.5088 8.29765 18.3728 9.0333 17.7935C9.37731 17.5226 9.56571 17.4981 11.3028 17.4981C12.717 17.4981 13.2965 17.5497 13.5903 17.7017C14.4292 18.136 14.4086 17.9741 14.4086 24.1378C14.4086 29.0228 14.4351 29.7628 14.6109 29.7628C15.1526 29.7628 16.0856 29.3917 16.4187 29.0438L16.7909 28.6549L16.859 21.3617L16.927 14.0686L17.3716 13.6711L17.8162 13.2736H19.8009C21.4274 13.2736 21.8568 13.3156 22.179 13.5061C22.9822 13.9811 22.9849 14.0059 22.9849 20.8915C22.9849 24.3467 23.0309 27.1721 23.087 27.1703C23.4449 27.1591 24.9844 26.236 25.1269 25.9471C25.2542 25.6891 25.2961 23.7359 25.2991 17.9069C25.3035 9.62879 25.288 9.81358 26.0238 9.26657C26.3721 9.00765 26.5912 8.98094 28.3621 8.98094C30.133 8.98094 30.3521 9.00765 30.7004 9.26657C31.4278 9.80731 31.4208 9.73822 31.423 16.4533C31.4242 20.1827 31.4754 22.6809 31.5499 22.6538C31.944 22.5104 34.8211 20.0813 36.0467 18.8573C38.457 16.4503 39.1938 15.2558 38.9797 14.1036C38.8403 13.3532 38.0119 11.4301 37.2589 10.1083C34.2066 4.75167 28.8009 1.08916 22.6286 0.196017C21.7366 0.0668289 18.4751 0.0363035 17.6077 0.148866ZM39.0114 19.917C35.7404 24.2764 31.0184 28.1204 25.5917 30.8417C20.9938 33.1472 15.4552 34.9557 10.1205 35.8934C9.22198 36.0513 8.42561 36.1987 8.35074 36.221C8.13048 36.2866 10.1079 37.51 11.4594 38.1442C16.983 40.7361 23.4089 40.7239 28.6491 38.1112C35.4317 34.7296 39.6589 28.2151 39.9641 20.6737C40.0075 19.6016 40.0123 18.7246 39.9745 18.7246C39.937 18.7246 39.5035 19.2612 39.0114 19.917Z" fill="#2D5BD3"/>
</svg>
