<svg width="40" height="41" viewBox="0 0 40 41" fill="none" xmlns="http://www.w3.org/2000/svg">
<path d="M39.405 8.30783C38.0133 8.92449 36.5183 9.34116 34.9467 9.52949C36.5683 8.55915 37.7816 7.03194 38.36 5.23283C36.8364 6.13781 35.1689 6.77482 33.43 7.11616C32.2606 5.8676 30.7118 5.04004 29.0239 4.76195C27.336 4.48386 25.6035 4.77081 24.0954 5.57825C22.5873 6.38568 21.388 7.66843 20.6836 9.22733C19.9792 10.7862 19.8092 12.5341 20.2 14.1995C17.1128 14.0445 14.0927 13.2421 11.3357 11.8443C8.57871 10.4466 6.14641 8.48476 4.19668 6.08616C3.53001 7.23616 3.14668 8.56949 3.14668 9.98949C3.14593 11.2678 3.46073 12.5266 4.06314 13.654C4.66555 14.7815 5.53694 15.7429 6.60001 16.4528C5.36714 16.4136 4.16146 16.0805 3.08334 15.4812V15.5812C3.08322 17.3741 3.7034 19.1118 4.83865 20.4995C5.9739 21.8872 7.5543 22.8394 9.31168 23.1945C8.16798 23.504 6.9689 23.5496 5.80501 23.3278C6.30084 24.8705 7.26667 26.2195 8.56729 27.186C9.86791 28.1525 11.4382 28.6881 13.0583 28.7178C10.3081 30.8768 6.91149 32.048 3.41501 32.0428C2.79564 32.043 2.1768 32.0068 1.56168 31.9345C5.1108 34.2165 9.24224 35.4275 13.4617 35.4228C27.745 35.4228 35.5533 23.5928 35.5533 13.3328C35.5533 12.9995 35.545 12.6628 35.53 12.3295C37.0488 11.2311 38.3599 9.87099 39.4017 8.31283L39.405 8.30783Z" fill="#6ED4FF"/>
</svg>
